<svg version="1.1" id="Layer_1" xmlns="http://www.w3.org/2000/svg" xmlns:xlink="http://www.w3.org/1999/xlink" x="0px" y="0px"
	 width="100%" viewBox="0 0 896 400" enable-background="new 0 0 896 400" xml:space="preserve">
<path fill="pink" opacity="1.000000" stroke="none" 
	d="
M452.625000,1.000000 
	C452.944489,24.476162 465.643311,42.521877 478.326569,60.591373 
	C487.893127,74.220619 497.900269,87.582031 503.875244,103.375465 
	C508.434509,115.426636 509.781342,127.554306 505.476349,139.970215 
	C505.152252,140.904877 505.034973,141.918015 504.893158,142.904968 
	C504.851349,143.195984 505.055664,143.522354 505.157074,143.866089 
	C506.494751,145.111649 507.667389,143.956238 508.782837,143.476135 
	C528.993225,134.777252 544.393494,137.370041 559.691223,153.137985 
	C572.090942,165.918839 577.717590,181.669556 574.974426,199.359024 
	C572.287231,216.687378 560.774841,227.501328 545.295471,234.376022 
	C538.909668,237.212082 532.266296,239.438004 525.266052,240.340973 
	C522.407898,240.709671 520.446777,240.176895 521.603821,236.639496 
	C527.545593,218.472763 511.621460,209.816055 497.665070,211.563751 
	C480.296692,213.738739 472.494843,227.104904 478.968597,243.441650 
	C486.875458,263.394745 503.109680,272.769043 526.027039,270.615082 
	C556.970886,267.706726 585.927124,243.044937 591.332581,212.947678 
	C596.911499,181.884232 589.899841,153.262299 569.537537,128.651199 
	C557.157898,113.688400 541.962891,101.623741 527.109192,89.248177 
	C521.733948,84.769684 516.516418,80.101837 511.235840,75.510086 
	C510.240082,74.644211 509.097626,73.865288 508.914124,71.703438 
	C518.782410,68.454468 524.933289,61.097282 529.177979,51.645962 
	C533.269531,42.535629 532.333801,32.627319 533.471069,23.120626 
	C536.109619,23.367828 536.284973,24.873848 536.649963,26.086342 
	C543.252930,48.019707 555.041199,67.378929 566.627502,86.860062 
	C580.759583,110.621597 595.228271,134.255417 603.883972,160.753876 
	C610.884766,182.186218 612.357422,203.731140 604.049438,225.300949 
	C592.972595,254.059464 566.050903,273.271149 535.396973,274.491150 
	C526.727539,274.836212 518.126648,274.910156 509.603577,273.294373 
	C491.816711,269.922455 480.339722,259.449982 474.202576,242.424622 
	C468.518158,226.655258 461.808746,211.250305 457.819763,194.905853 
	C462.920746,229.460922 468.261902,263.932678 493.836273,291.408569 
	C470.360931,307.165649 458.438202,329.802307 452.520782,356.123627 
	C448.947632,354.951294 449.250092,352.430450 448.783295,350.501709 
	C443.924927,330.428589 434.904480,312.794678 419.405182,298.709564 
	C416.414185,295.991486 410.655060,294.513702 410.972717,290.425171 
	C411.226959,287.152802 415.595245,284.252960 418.003632,281.085846 
	C427.846588,268.142273 433.710938,253.325180 438.111755,237.851868 
	C442.582336,222.133255 445.672760,206.131927 447.622681,189.909454 
	C447.698212,189.281158 447.632263,188.635895 447.138214,187.911346 
	C445.274872,194.764511 443.401489,201.614975 441.550201,208.471405 
	C437.802246,222.352448 431.875519,235.398727 426.173828,248.527054 
	C419.651581,263.544922 407.131989,271.275452 391.937561,273.979004 
	C373.662445,277.230682 355.257690,276.355499 338.122070,268.216248 
	C313.126434,256.343597 298.647003,236.056763 293.781921,209.107651 
	C289.552032,185.676895 296.283661,163.903702 305.616058,142.773148 
	C315.199188,121.074814 327.766571,100.998550 339.797028,80.636948 
	C350.059265,63.268051 360.223846,45.857956 365.784973,26.243570 
	C366.060181,25.272842 366.125061,25.291241 369.026917,23.770458 
	C369.763611,43.679550 371.178345,63.232704 393.846436,72.178551 
	C393.563232,75.090469 390.504303,76.303711 388.342926,78.076454 
	C375.851440,88.321907 362.983795,98.111702 351.103546,109.093391 
	C336.507904,122.585121 323.747101,137.487350 317.057312,156.537628 
	C309.212463,178.877075 306.221436,201.663971 315.090454,224.416992 
	C325.989746,252.378494 355.477905,271.448730 385.435913,270.652344 
	C403.665680,270.167725 418.132202,259.987701 424.131073,243.422745 
	C428.037964,232.634583 426.223877,223.010391 419.204163,217.284180 
	C411.019745,210.607880 397.329834,209.417603 388.584229,214.621918 
	C381.690430,218.724258 378.805023,226.152252 380.860352,234.505722 
	C382.437958,240.917633 381.835846,241.549759 375.310638,240.081528 
	C365.672791,237.912949 356.307953,234.973404 348.052734,229.343216 
	C323.597137,212.664032 321.217377,183.379333 337.675781,159.869431 
	C347.176636,146.298050 359.841553,137.928879 377.199341,138.642151 
	C382.261078,138.850159 386.996521,140.289841 391.640076,142.227936 
	C393.576630,143.036194 395.245453,144.685013 397.472992,144.454849 
	C398.379272,143.713150 398.267761,142.875595 397.981293,142.091385 
	C391.304993,123.813965 396.022919,107.054688 404.766479,90.817802 
	C412.378937,76.681442 422.371490,64.131424 431.346436,50.903950 
	C438.583649,40.237656 445.262146,29.270340 448.071014,16.514029 
	C449.137177,11.672089 449.239655,6.617952 449.890686,1.330268 
	C450.750000,1.000000 451.500000,1.000000 452.625000,1.000000 
M446.333557,304.433350 
	C446.784515,309.549713 447.638306,314.523315 451.124786,318.735687 
	C456.998627,311.401337 456.814972,297.702576 450.654053,290.755707 
	C447.415741,294.514191 446.710815,298.984894 446.333557,304.433350 
z"/>
<path fill="#000000" opacity="1.000000" stroke="none" 
	d="
M1.000000,343.460632 
	C3.803537,334.151642 5.717735,324.939728 11.534465,317.325775 
	C13.251949,315.077637 14.767357,312.647400 16.678646,310.581177 
	C19.913052,307.084625 22.978180,304.134552 22.684259,298.366180 
	C22.377928,292.354248 28.809238,288.441467 35.428150,290.008514 
	C39.049614,290.865936 40.883480,289.742645 42.962105,287.109894 
	C61.755512,263.306641 86.614227,248.436584 114.923271,238.818726 
	C136.673660,231.429138 159.180756,229.245239 181.934158,230.847992 
	C210.649216,232.870667 237.321030,241.876572 261.920502,256.801666 
	C279.417084,267.417236 295.003906,280.353851 308.094025,296.171112 
	C309.114136,297.403809 310.701141,298.345367 310.612610,300.387695 
	C308.399994,301.620636 306.811279,299.811523 305.202667,299.042480 
	C280.523682,287.243713 255.425613,276.474213 228.790695,269.915222 
	C166.401062,254.551468 106.245743,260.192291 48.760612,289.774933 
	C44.891338,291.766083 42.028591,293.286835 43.400505,299.022949 
	C44.937668,305.449951 39.062962,310.461029 31.526598,309.134003 
	C26.538160,308.255615 24.150579,310.459290 21.524538,313.603851 
	C-2.929881,342.887085 4.516889,380.989746 38.181202,398.773163 
	C39.057449,399.235992 39.861771,399.835022 40.849815,400.685272 
	C37.638714,401.000000 34.277424,401.000000 30.209385,400.780029 
	C26.634729,398.316589 23.669504,396.185883 20.915773,393.810059 
	C9.050971,383.573547 2.886401,370.375671 1.000000,355.000000 
	C1.000000,351.307098 1.000000,347.614166 1.000000,343.460632 
z"/>
<path fill="#000000" opacity="1.000000" stroke="none" 
	d="
M860.458069,401.000000 
	C861.163025,399.450439 862.977600,398.906647 864.594849,398.090515 
	C898.701172,380.879547 905.604370,337.492615 878.568665,310.562592 
	C876.550110,308.551849 874.548767,308.175751 871.841492,308.532379 
	C862.569153,309.754028 857.604553,304.808167 859.311462,295.812958 
	C859.932495,292.540222 858.109009,291.674683 856.049927,290.574158 
	C833.565735,278.556915 809.874084,269.977234 784.768127,265.322784 
	C734.211304,255.949966 685.368225,262.416382 637.735168,280.832855 
	C623.271667,286.424927 609.185608,292.841492 595.120422,299.329742 
	C593.999695,299.846802 592.910767,301.026459 590.986694,299.681458 
	C596.543152,292.181152 602.964172,285.518433 609.801208,279.304291 
	C639.362061,252.436798 673.741638,235.264191 713.582336,230.990875 
	C763.717896,225.613342 808.532837,238.913239 846.753357,272.511353 
	C851.900696,277.036194 856.345703,282.238220 860.383606,287.763550 
	C861.831665,289.745087 863.213806,290.327972 865.812561,289.768921 
	C874.998535,287.792664 880.122498,292.271210 879.701050,301.632965 
	C879.631348,303.181763 880.164612,304.214996 881.184082,305.115784 
	C887.933960,311.079681 892.382080,318.687378 896.766846,326.755463 
	C897.000000,342.020905 897.000000,357.041779 896.763916,372.772217 
	C890.705261,385.146820 882.016296,394.152893 871.000000,401.000000 
	C867.638733,401.000000 864.277405,401.000000 860.458069,401.000000 
z"/>
<path fill="#000000" opacity="1.000000" stroke="none" 
	d="
M84.454109,401.000000 
	C86.309753,397.801208 90.200729,396.687592 93.018509,394.105316 
	C100.545944,387.206940 105.184563,379.186096 103.685867,368.584961 
	C103.480446,367.131958 103.046837,365.646454 102.403244,364.330353 
	C96.997238,353.275055 77.598083,347.554932 66.999771,353.836365 
	C61.862347,356.881256 59.218769,363.048035 60.774429,368.358643 
	C62.488583,374.210327 66.276497,376.311493 73.624359,376.015991 
	C76.073074,375.917511 80.147171,373.215942 80.681625,377.580872 
	C81.169136,381.562378 76.572243,381.228668 73.912193,381.758789 
	C67.216743,383.093109 60.220833,379.649506 56.875538,373.856018 
	C53.259079,367.592926 54.000591,359.222961 58.781742,353.787903 
	C65.777016,345.835846 74.810936,345.231354 84.452011,346.756409 
	C99.250580,349.097229 109.535919,358.345093 110.058388,370.648254 
	C110.510994,381.306061 105.664055,389.903778 98.041748,397.066345 
	C96.830223,398.204834 95.600220,399.323639 94.189377,400.725769 
	C90.969406,401.000000 87.938812,401.000000 84.454109,401.000000 
z"/>
<path fill="#000000" opacity="1.000000" stroke="none" 
	d="
M809.458069,401.000000 
	C803.419983,395.111481 797.249268,389.771759 794.289429,381.767365 
	C789.437317,368.645630 793.887939,356.415497 806.378357,350.208191 
	C815.121643,345.863068 824.330200,344.036316 833.925903,346.860809 
	C844.201477,349.885468 849.707947,359.401794 847.219177,369.293335 
	C844.816284,378.843567 832.791870,384.414764 823.930908,380.128540 
	C822.381836,379.379242 821.449768,378.330688 821.875488,376.625824 
	C822.357178,374.697266 823.940552,374.753967 825.500183,375.025970 
	C826.155212,375.140198 826.793030,375.353363 827.448486,375.463959 
	C834.047241,376.577698 839.224243,374.205505 841.219299,369.167175 
	C843.331787,363.831940 841.120361,357.118988 836.132996,353.727570 
	C828.269043,348.379913 812.444641,350.545380 804.017822,358.122314 
	C797.313171,364.150726 796.401489,374.092010 801.480835,383.834717 
	C805.530029,391.601318 812.387024,396.199158 819.811523,400.714905 
	C816.638733,401.000000 813.277405,401.000000 809.458069,401.000000 
z"/>
<path fill="#000000" opacity="1.000000" stroke="none" 
	d="
M733.878174,278.222412 
	C740.462402,278.763306 746.609314,279.210419 752.293335,281.999207 
	C761.465454,286.499359 765.519653,294.209595 766.264160,304.029358 
	C766.376282,305.507233 766.403320,306.991547 766.477600,308.648956 
	C767.130676,308.648956 767.730530,308.840546 768.028442,308.621490 
	C783.535217,297.217896 801.071533,295.405670 819.450317,297.809540 
	C836.995544,300.104401 852.992737,306.273285 866.703674,317.656708 
	C875.279785,324.776947 881.311035,333.546722 882.928711,344.892487 
	C883.882080,351.578888 881.448914,359.173035 877.238708,362.402466 
	C876.928162,362.297424 876.448364,362.277893 876.335205,362.064178 
	C868.213013,346.729462 853.237488,341.739136 838.197083,337.129883 
	C812.492981,329.252563 786.008728,329.398407 759.511719,330.227356 
	C716.930603,331.559479 675.677856,339.269501 635.780396,354.658417 
	C610.641357,364.354828 584.361694,369.213745 557.357849,365.190918 
	C530.329651,361.164429 505.031586,352.238129 483.383759,334.810608 
	C482.060364,333.745239 480.093109,333.047485 479.994385,330.872803 
	C480.886353,329.998535 481.596893,330.689575 482.274261,331.048248 
	C517.264038,349.575531 551.499084,348.271790 584.995422,327.177124 
	C594.424194,321.239288 603.008423,313.930206 613.346924,309.472076 
	C631.263672,301.746063 642.922607,305.410400 653.230530,321.863586 
	C653.914246,322.954895 654.355835,324.298096 656.106018,324.877289 
	C658.509888,320.250763 660.137024,315.195557 663.390991,310.939270 
	C671.337097,300.545715 682.185608,294.137054 693.598145,288.523621 
	C706.143372,282.353058 719.417664,278.776825 733.878174,278.222412 
z"/>
<path fill="#000000" opacity="1.000000" stroke="none" 
	d="
M100.100220,331.313568 
	C80.471718,333.083496 61.737282,336.526947 44.370598,345.373871 
	C37.254539,348.998962 31.096756,353.650940 27.239098,360.877838 
	C26.786465,361.725739 26.300730,362.670258 24.642691,362.970917 
	C21.135130,360.068817 20.165373,355.741119 19.714052,351.319641 
	C18.539215,339.809845 23.523520,330.627380 31.075417,322.540771 
	C52.120087,300.005951 95.589615,290.774902 123.795479,302.949951 
	C127.575233,304.581451 131.032120,306.960938 134.876862,309.128418 
	C136.341370,307.142792 136.310928,304.821716 136.407471,302.885223 
	C137.048279,290.029297 146.654968,281.883057 159.368622,279.692413 
	C175.292160,276.948669 190.231094,280.928589 204.566391,287.148529 
	C217.127533,292.598602 229.032150,299.308136 237.927902,310.284943 
	C241.646179,314.873077 244.200500,319.991547 245.981277,325.611450 
	C248.308136,324.856842 248.735840,322.908325 249.645218,321.435181 
	C258.740387,306.701355 271.162750,302.686432 287.314484,309.259613 
	C298.089325,313.644592 307.044556,320.979492 316.610596,327.306580 
	C345.073975,346.132568 375.391083,348.930267 407.257294,337.860107 
	C412.222961,336.135071 416.822968,333.357483 422.009583,330.866058 
	C422.205627,333.640869 420.308807,334.666718 418.881989,335.724396 
	C393.434265,354.588287 364.903412,364.737579 333.234711,366.478302 
	C304.381073,368.064301 277.496582,360.033875 251.070709,350.056915 
	C229.893784,342.061646 208.065323,337.267670 185.710922,334.421692 
	C162.068451,331.411774 138.353027,329.692444 114.505341,330.398285 
	C109.853058,330.535980 105.210182,330.991577 100.100220,331.313568 
z"/>
<path fill="#000000" opacity="1.000000" stroke="none" 
	d="
M232.934204,78.670044 
	C235.926239,79.080513 239.570007,77.352097 240.765533,80.043457 
	C242.180099,83.227905 238.205704,84.587280 236.409866,86.496056 
	C216.313110,107.856651 203.677948,132.149948 206.323227,162.467804 
	C208.388214,186.134857 218.694168,206.385864 232.512497,225.184906 
	C233.835358,226.984589 237.323578,228.852203 235.130798,231.330124 
	C233.150055,233.568436 230.544510,230.833679 228.472290,229.797241 
	C208.324173,219.719742 187.293259,212.714478 164.650787,211.365784 
	C129.213028,209.254944 98.557022,220.689026 72.172424,244.185974 
	C70.278732,245.872406 68.554077,249.206223 65.752640,248.069168 
	C62.664337,246.815689 63.808216,243.133331 63.689751,240.421204 
	C62.254776,207.569412 84.917519,181.024139 111.555695,174.038513 
	C116.851280,172.649796 122.334656,172.920273 127.723343,172.283112 
	C127.638351,168.740204 125.274223,167.366043 123.671997,165.610626 
	C112.570068,153.447266 102.889313,140.432892 98.360229,124.262329 
	C96.705582,118.354607 97.478088,117.718033 103.518669,118.438599 
	C121.485802,120.581848 137.238861,128.287354 152.444397,137.471497 
	C154.804535,138.897018 156.995331,140.728317 160.318558,141.349701 
	C160.593826,136.579926 160.358902,132.070480 161.189926,127.766861 
	C164.434311,110.965126 175.492569,99.939003 189.397720,91.419205 
	C202.558640,83.355400 217.044174,79.309898 232.934204,78.670044 
z"/>
<path fill="#000000" opacity="1.000000" stroke="none" 
	d="
M807.258240,180.616592 
	C824.093811,191.518845 834.295898,206.518311 837.804749,225.901855 
	C838.927551,232.104736 839.178772,238.416946 838.313110,244.728180 
	C837.772705,248.667419 835.932678,248.734451 833.351624,246.481171 
	C827.582153,241.444443 821.873535,236.368668 815.501160,232.045700 
	C788.297363,213.590759 758.393188,207.508133 726.066345,212.086731 
	C707.897156,214.660095 690.923584,220.832230 674.530945,228.862183 
	C672.377991,229.916809 670.410034,231.802750 667.622681,231.257919 
	C665.752625,228.949020 667.745422,227.610565 668.857605,226.107880 
	C679.027344,212.367889 687.563110,197.775528 692.481628,181.264542 
	C702.273865,148.393082 694.125122,119.565201 672.869202,93.636780 
	C669.097168,89.035500 664.837341,84.875832 660.770020,80.948250 
	C661.886963,78.032593 663.948914,78.091187 665.655579,78.125038 
	C692.375366,78.654961 715.641968,87.013985 732.850342,108.495407 
	C739.686523,117.029114 742.330505,127.045349 741.878479,137.915375 
	C741.838135,138.883438 741.451233,139.902298 742.729980,141.263489 
	C761.654053,129.695969 780.909180,118.256256 805.143250,117.639145 
	C801.578369,139.748352 787.701721,154.837540 773.426147,171.173538 
	C786.282776,171.852997 797.166931,174.345154 807.258240,180.616592 
z"/>
<path fill="#000000" opacity="1.000000" stroke="none" 
	d="
M235.823959,195.953766 
	C219.506027,125.478935 268.991425,64.294090 328.065796,52.476891 
	C328.381226,54.898312 326.231781,55.422138 324.928070,56.420265 
	C303.731812,72.648590 286.815338,92.384590 277.364563,117.543182 
	C260.906677,161.355225 265.514801,203.443268 289.282715,243.604813 
	C298.315125,258.867188 309.347534,272.632294 320.727509,286.152527 
	C322.174652,287.871826 324.112671,289.324890 324.649750,293.067444 
	C281.913300,272.007355 248.518631,243.809235 235.823959,195.953766 
z"/>
<path fill="#000000" opacity="1.000000" stroke="none" 
	d="
M626.007019,261.009399 
	C611.696655,274.160217 595.605408,283.862061 577.897461,292.361267 
	C578.086731,288.946533 580.073547,287.517212 581.490723,285.828033 
	C595.638306,268.964844 609.149414,251.688553 619.250488,231.960327 
	C646.228271,179.270325 638.303711,113.501534 594.271362,70.708008 
	C589.008362,65.593063 583.474792,60.808029 577.798584,56.168560 
	C576.466309,55.079590 574.537354,54.382820 574.394287,52.191761 
	C602.545288,51.392090 647.911377,89.688568 661.721436,125.914345 
	C680.273499,174.579193 665.744141,225.490997 626.007019,261.009399 
z"/>
</svg>