<?xml version="1.0" standalone="no"?>
<!DOCTYPE svg PUBLIC "-//W3C//DTD SVG 20010904//EN"
 "http://www.w3.org/TR/2001/REC-SVG-20010904/DTD/svg10.dtd">
<svg version="1.0" xmlns="http://www.w3.org/2000/svg"
 width="1280.000000pt" height="1280.000000pt" viewBox="0 0 1280.000000 1280.000000"
 preserveAspectRatio="xMidYMid meet">
<metadata>
Created by potrace 1.15, written by Peter Selinger 2001-2017
</metadata>
<g transform="translate(0.000000,1280.000000) scale(0.100000,-0.100000)"
fill="#000000" stroke="none">
<path d="M6079 11194 c-137 -128 -224 -191 -344 -250 -164 -81 -320 -114 -536
-114 -238 0 -428 32 -959 160 -592 144 -751 170 -1075 177 -260 6 -384 -6
-582 -58 -524 -135 -1034 -553 -1292 -1059 -216 -424 -252 -867 -125 -1499 14
-69 62 -270 106 -446 125 -503 150 -630 168 -860 18 -215 -11 -428 -81 -598
-54 -131 -132 -242 -288 -410 -39 -42 -71 -81 -71 -87 0 -5 44 -55 98 -110 89
-91 106 -116 177 -248 104 -195 120 -227 144 -301 42 -129 54 -211 54 -366 1
-228 -44 -453 -213 -1071 -160 -582 -184 -721 -184 -1044 0 -207 3 -248 22
-340 68 -314 203 -576 436 -847 428 -497 961 -753 1570 -753 279 0 559 47
1166 193 393 95 558 128 749 147 279 27 521 -10 726 -112 110 -56 184 -109
322 -238 65 -60 124 -110 132 -110 7 0 57 42 110 93 254 244 445 336 762 368
241 24 497 -13 1110 -162 505 -122 758 -165 1034 -176 510 -20 961 133 1355
461 100 84 274 267 351 369 137 182 248 399 303 589 64 220 80 369 73 643 -8
299 -38 477 -175 1030 -131 525 -152 648 -159 905 -6 217 5 313 53 455 56 169
131 286 296 464 62 67 114 127 116 132 2 5 -49 66 -113 135 -162 177 -231 282
-289 444 -44 121 -56 195 -63 365 -9 259 18 434 152 985 145 597 174 766 182
1070 4 167 2 243 -11 340 -60 450 -256 820 -616 1163 -243 231 -496 382 -790
470 -187 57 -279 69 -535 74 -350 7 -509 -16 -1164 -173 -608 -145 -766 -170
-1031 -161 -348 12 -564 106 -830 363 -59 57 -112 104 -118 104 -5 0 -61 -48
-123 -106z"/>
</g>
</svg>
